<?xml version="1.0" encoding="utf-8"?>
<!-- Generator: Adobe Illustrator 19.0.0, SVG Export Plug-In . SVG Version: 6.00 Build 0)  -->
<svg version="1.1" id="Layer_1" xmlns="http://www.w3.org/2000/svg" xmlns:xlink="http://www.w3.org/1999/xlink" x="0px" y="0px"
	 width="663.1px" height="137.9px" viewBox="-167 432.1 663.1 137.9" style="enable-background:new -167 432.1 663.1 137.9;"
	 xml:space="preserve">
<g>
	<path d="M-84.1,452c3.5-2.3,6.2-4.3,8.1-5.9c1.9-1.7,3.4-3.1,4.5-4.2c1.1-1.1,2-2,2.7-2.6c0.7-0.6,1.7-0.9,2.9-0.9
		c0.8,0,1.9,0.3,3.1,0.9c1.2,0.6,3.1,1.4,5.6,2.4c1.2,0.4,2.3,1.7,3.4,3.7s1.6,3.6,1.6,4.8c0,0.9-0.3,1.6-1,2.1s-1.9,0.9-3.7,1.2
		c-1.2,0.1-3.3,1-6.5,2.5c-3.1,1.5-6.8,3.5-11.1,5.8c-4.2,2.4-8.7,5-13.5,7.9s-9.4,5.7-13.9,8.5s-8.5,5.4-12.2,7.9
		c-3.6,2.5-6.4,4.4-8.2,5.8c3,1.6,8.4,4.6,16.1,9c7.8,4.4,16.9,9.4,27.3,15c10.4,5.6,21.5,11.4,33.1,17.4
		c11.7,6,22.8,11.3,33.4,15.9c1.7,0.7,3.5,1.3,5.6,1.6c2.1,0.4,4.1,0.7,6,1c1.9,0.3,3.5,0.7,4.8,1.1c1.3,0.4,2,1.1,2,1.9
		c0,0.9-0.7,2.1-2,3.6s-2.9,3-4.7,4.5s-3.7,2.8-5.6,4c-1.9,1.2-3.4,1.7-4.6,1.7c-1.7,0-3.2-0.4-4.7-1.3c-1.5-0.9-3.9-2.2-7.2-4.1
		c-20.9-12.5-38.6-22.9-53.1-31.2c-14.6-8.3-26.6-14.9-36-19.8c-9.4-4.9-16.6-8.4-21.6-10.4s-8.2-3-9.7-3c0,3.6,0,8,0.1,13.3
		c0.1,5.3,0.2,10.6,0.2,16c0.1,5.4,0.2,10.5,0.2,15.2c0.1,4.8,0.1,8.4,0.1,11c0,0.9-0.5,1.9-1.6,3.2c-1.1,1.3-2.4,2.6-3.8,3.8
		c-1.5,1.2-3,2.2-4.5,3s-2.6,1.2-3.5,1.2c-1.2,0-2-0.5-2.5-1.6c-0.5-1.1-0.7-3.7-0.7-7.9c0-1.6,0.1-4,0.2-7.4
		c0.2-3.3,0.3-7.3,0.4-12c0.1-4.7,0.2-9.8,0.4-15.4c0.3-5.5,0.4-11.2,0.4-17.1c0-8.6-0.2-17.3-0.7-26.1c-0.5-8.7-1.2-17.4-2-26
		c-0.2-1.4-0.6-2.6-1.4-3.5c-0.7-0.9-1.5-1.6-2.2-2.2c-0.7-0.6-1.4-1-2-1.4c-0.6-0.3-0.9-0.7-0.9-1.1c0-0.7,0.1-1.2,0.4-1.5
		c0.2-0.3,0.5-0.6,0.9-0.9c3.1-2.2,5.7-3.9,7.6-5.1c1.9-1.2,3.4-2.2,4.3-2.8c1-0.6,1.7-1,2.2-1.2c0.5-0.1,0.9-0.2,1.2-0.2
		c0.5,0,1.3,0.3,2.5,0.9c1.2,0.6,2.4,1.3,3.6,2.2s2.4,1.8,3.4,2.8s1.5,1.9,1.5,2.8c0,2-0.2,4.7-0.6,8.1c-0.4,3.4-0.8,7.1-1.2,11.2
		c-0.4,4.1-0.8,8.4-1.2,13c-0.4,4.5-0.6,8.9-0.6,13.1l6,1.9L-84.1,452z"/>
	<path d="M8.8,502.7c2.4-6.5,6.3-12.5,11.7-17.8c5.4-5.4,12.3-9.8,20.7-13.1c8.4-3.4,18.6-5.1,30.6-5.1c7,0,13.6,1,19.8,3
		c6.3,2,11.7,5.1,16.4,9.2c4.7,4.2,8.4,9.5,11.2,15.9c2.8,6.5,4.2,14.1,4.2,22.9c0,8.4-1.8,15.9-5.3,22.5c-3.6,6.5-8.3,12-14.2,16.4
		c-5.9,4.4-12.7,7.8-20.2,10.1c-7.6,2.3-15.4,3.5-23.6,3.5c-6.4,0-13-1-19.6-3.1c-6.6-2-12.5-5.1-17.7-9.1s-9.5-9-12.8-15.1
		c-3.3-6-5-13-5-20.9C5.2,515.6,6.4,509.2,8.8,502.7z M25.8,528.8c1.2,4.3,3.4,8.7,6.7,13c3.2,4.3,7.6,8,13.2,11.2
		c5.6,3.2,12.7,4.8,21.4,4.8c3.7,0,7.7-0.5,12.3-1.5c4.5-1,8.8-2.9,12.9-5.8c4.1-2.8,7.5-6.7,10.2-11.6c2.7-4.9,4-11.2,4-18.9
		c0-7.9-1.1-14.6-3.4-20s-5.2-9.7-8.9-13c-3.7-3.3-7.8-5.6-12.5-7.1s-9.6-2.2-14.6-2.2c-6.8,0-12.9,1.1-18.3,3.4
		c-5.4,2.2-9.9,5.2-13.6,8.9c-3.7,3.7-6.4,8.1-8.3,13c-1.9,5-2.9,10.2-2.9,15.7C23.9,521.1,24.5,524.4,25.8,528.8z"/>
	<path d="M143.8,481.7c-2.1-4.7-5.5-9.3-10.3-13.7c-4.1-3.9-7.5-7-9.9-9.4c-2.5-2.4-4.4-4.3-5.7-5.8c-1.3-1.5-2.2-2.7-2.6-3.5
		c-0.4-0.8-0.6-1.5-0.6-2.3c0-1.3,1.1-2.7,3.2-4.3c2.1-1.6,4.8-2.4,7.9-2.4c0.5,0,1,0.1,1.6,0.3c0.6,0.2,1.7,0.9,3.2,1.9
		c1.6,1.1,3.8,2.7,6.6,5c2.8,2.2,6.6,5.4,11.4,9.4c13.1,11.2,25.2,20.9,36.2,29.2c11,8.4,21.8,15.9,32.4,22.7s21.3,13,32.2,18.7
		c10.8,5.7,22.6,11.4,35.4,17.2c0.3-3.2,0.6-6,0.9-8.4c0.2-2.4,0.5-4.8,0.6-6.9c0.2-2.2,0.3-4.4,0.4-6.6s0.1-4.7,0.1-7.2
		c0-9.5-0.2-18.2-0.5-26.2c-0.3-7.9-0.7-16-1-24.2c-0.2-2.9-0.7-5.2-1.5-6.9c-0.8-1.7-1.7-3.2-2.6-4.3s-1.7-2.2-2.5-3
		c-0.7-0.9-1.1-1.9-1.1-3c0-1.3,0.7-2.4,2-3.2c1.3-0.9,2.9-1.5,4.8-2.1c1.9-0.5,3.9-0.9,6-1.2s3.8-0.4,5.3-0.4
		c1.8,0,3.6,0.3,5.5,0.8c1.8,0.5,2.7,1.7,2.7,3.6c0,1.2-0.2,2.7-0.6,4.8c-0.4,2-0.9,5.6-1.5,10.7s-1.1,12.4-1.5,21.8
		c-0.4,9.4-0.6,22.2-0.6,38.4c0,4.9,0.1,9.2,0.4,12.9c0.2,3.7,0.6,6.9,1,9.7s0.7,5.3,1,7.5c0.2,2.2,0.4,4.3,0.4,6.3
		c0,1.9-0.7,3.5-2,5c-1.3,1.4-2.9,2.6-4.6,3.6c-1.7,0.9-3.5,1.6-5.3,2.1c-1.8,0.4-3.3,0.6-4.5,0.6c-1,0-1.9-0.6-2.6-1.8
		s-1.6-2.7-2.6-4.3c-1-1.7-2.2-3.4-3.6-5.3c-1.4-1.9-3.4-3.5-5.8-4.8c-13.2-6.6-24.7-12.4-34.5-17.4s-18.2-9.4-25.3-13.2
		c-7.1-3.8-13.2-7.2-18.1-10c-5-2.9-9.3-5.5-13-8c-3.7-2.4-7.1-4.8-10.1-7c-3-2.2-6-4.6-8.9-7c-0.5,3.2-1,7.5-1.4,13
		s-0.9,11.4-1.4,17.8c-0.5,6.4-1.1,12.9-1.9,19.3c-0.7,6.5-1.7,12.3-2.9,17.5c-0.8,3.3-2.2,5.8-4,7.4c-1.8,1.6-3.7,2.4-5.7,2.4
		c-0.8,0-1.9-0.1-3.1-0.4c-1.2-0.3-2.4-0.7-3.5-1.3c-1.1-0.6-2-1.2-2.7-1.9c-0.7-0.7-1.1-1.5-1.1-2.4c0-1.4,0.7-3.6,2.1-6.6
		s2.9-6.9,4.5-11.9s3.1-11,4.5-18.2c1.4-7.1,2.1-15.5,2.1-25.2C146.9,492.2,145.9,486.4,143.8,481.7z"/>
	<path d="M358.6,532.9c-3.1,1.4-5.9,3.9-8.2,7.5L338,559.2c-0.8,1.3-1.3,2.7-1.5,4.1c-0.2,1.4-1.4,2.2-3.7,2.2
		c-4.6,0-8.4-0.4-11.2-1.3c-2.8-0.9-4.2-2.1-4.2-3.7c0-1.3,0.8-2.7,2.5-4.1s3.6-3.4,5.7-5.8c3-3.3,6.3-7.3,9.9-11.9
		s7.3-9.4,10.9-14.5c3.6-5,7.2-10.1,10.7-15.2c3.5-5.1,6.5-9.8,9.2-14.2c2.6-4.3,4.8-8.1,6.5-11.4c1.7-3.2,2.5-5.5,2.5-6.8
		c0-2.9-2.8-6.8-8.4-11.7L346.5,447c-2.3-2.2-4.3-3.7-6-4.5c-1.7-0.9-2.5-1.9-2.5-3c0-0.6,0.6-1.3,1.9-2.1c1.2-0.8,2.7-1.6,4.3-2.4
		c1.7-0.8,3.4-1.5,5.1-2.1s3.2-0.9,4.3-0.9c2.3,0,4.1,0.1,5.5,0.2c1.3,0.1,2.4,0.5,3.4,1c0.9,0.5,1.7,1.3,2.2,2.3
		c0.6,1,1.3,2.4,2.1,4.1c0.3,0.9,1.4,2.3,3.1,4.3c1.7,2,3.5,4,5.3,6.1c13.4,14.1,25,26,34.8,35.7s18.7,18.1,26.7,25.4
		c8,7.3,15.7,13.9,23.1,19.8c7.4,5.9,15.4,12.3,24.2,19c1.7,1.3,3.2,2.2,4.7,2.6c1.5,0.4,2.8,0.8,3.9,1.1c1.1,0.3,1.9,0.7,2.6,1.2
		c0.7,0.5,1,1.4,1,2.7c0,0.6-0.5,1.4-1.4,2.5c-0.9,1.1-2,2.2-3.4,3.2c-1.3,1.1-2.7,2-4,2.7c-1.3,0.7-2.5,1.1-3.5,1.1h-7.4
		c-1.3,0-2.2-0.5-2.7-1.5s-1.2-1.9-2-2.8c-5.5-6.5-16.6-17.1-33.3-31.8h-65.8C366.4,530.9,361.7,531.6,358.6,532.9z M370.7,509.3
		c-2.2,3.3-3.6,5.5-4.2,6.5c-0.7,1-1,1.9-1,2.6c0,0.6,0.2,1,0.6,1.4c0.4,0.4,1.4,0.6,3.1,0.8c1.7,0.1,4.1,0.3,7.5,0.3
		c3.3,0.1,7.9,0.1,13.9,0.1c6.5,0,11.8,0,16.1-0.1c4.3-0.1,7.8-0.2,10.4-0.3c2.6-0.1,4.6-0.3,6-0.5c1.3-0.2,2.3-0.5,3-0.8l-39-34.6
		L370.7,509.3z"/>
	<path d="M-34.8,440.9H89.7c0,0,17.1,8.6,9.5,12.4c-7.6,3.8-104.5-2.9-107.4-2.9C-11,450.4-34.8,440.9-34.8,440.9z"/>
</g>
</svg>
